<?xml version="1.0" encoding="UTF-8"?>
<svg version="1.1" xmlns="http://www.w3.org/2000/svg" width="981" height="571">
<path d="M0 0 C323.73 0 647.46 0 981 0 C981 188.43 981 376.86 981 571 C657.27 571 333.54 571 0 571 C0 382.57 0 194.14 0 0 Z " fill="#0D0D0D" transform="translate(0,0)"/>
<path d="M0 0 C5.98419136 -0.49868261 9.9704914 0.71906822 15 4 C15.80566406 4.85722656 16.61132812 5.71445313 17.44140625 6.59765625 C22.10854143 10.54632039 28.07356808 9.80185637 33.875 9.75 C35.02097656 9.78609375 36.16695313 9.8221875 37.34765625 9.859375 C43.2463165 9.859375 47.06792856 9.59461017 51.5703125 5.578125 C52.4368042 4.6485498 52.4368042 4.6485498 53.32080078 3.70019531 C55.93348442 1.05484363 58.04269844 0.04351371 61.75 -0.125 C62.4925 -0.08375 63.235 -0.0425 64 0 C62.948125 0.8353125 62.948125 0.8353125 61.875 1.6875 C59.84067736 3.32380299 57.82371057 4.97133314 55.8203125 6.64453125 C54.42425781 7.81048828 54.42425781 7.81048828 53 9 C54.25554687 9.14695313 55.51109375 9.29390625 56.8046875 9.4453125 C70.14991154 11.16744888 80.19776805 14.16271164 89 25 C93.53765884 32.56276473 94.32127774 41.36758176 92.31640625 49.9140625 C88.9770184 59.97379521 84.15233937 64.81134808 74.87890625 69.73828125 C68.05027886 72.73101754 62.28887892 73.27952714 54.91015625 73.1953125 C53.4933683 73.19106766 53.4933683 73.19106766 52.04795837 73.18673706 C49.05267276 73.17560684 46.05769414 73.1505156 43.0625 73.125 C41.0227908 73.11496095 38.98307688 73.10583672 36.94335938 73.09765625 C31.9621226 73.07569096 26.98111322 73.04121076 22 73 C22.61875 72.71125 23.2375 72.4225 23.875 72.125 C26.13325765 71.06279958 26.13325765 71.06279958 28 69 C28.55386965 64.12804503 28.48799342 59.21286029 28.5 54.3125 C28.50334351 53.60536865 28.50668701 52.8982373 28.51013184 52.16967773 C28.5132168 41.35134129 27.6154263 32.47925174 22 23 C21.26409055 21.70920695 20.52973706 20.41752568 19.796875 19.125 C19.20390625 18.09375 18.6109375 17.0625 18 16 C15.08083462 15.65248031 12.86804524 15.46719982 10.30078125 17.04296875 C8.11660035 18.84637235 6.27793808 20.44412384 5 23 C4.34 22.67 3.68 22.34 3 22 C5.98127544 16.87220625 9.03353764 14.24730231 14 11 C9.58595572 6.91084731 5.5658728 3.36549594 0 1 C0 0.67 0 0.34 0 0 Z M47.13671875 14.515625 C45.79899613 16.6195355 44.89650675 18.67631883 44 21 C43.31670031 22.21071352 42.62921158 23.41907264 41.9375 24.625 C41.26302263 26.07030865 40.61992161 27.5304647 40 29 C39.62488281 29.88042969 39.24976563 30.76085937 38.86328125 31.66796875 C34.49522573 44.00580977 35.6370566 57.09875819 36 70 C39.94668939 70.12509012 43.89258657 70.21502442 47.84082031 70.2746582 C49.83179353 70.31169623 51.82221653 70.37528228 53.8125 70.43945312 C63.07284372 70.55637666 70.13345609 69.43339311 77.1340332 63.0559082 C84.08184546 55.85791075 85.53550186 48.82002768 85.49023438 39.00830078 C85.18409661 31.03191858 82.55899488 25.12638372 76.8125 19.625 C69.30599363 13.95484927 61.4466433 12.07529143 52.08203125 12.359375 C49.01507336 12.75040048 49.01507336 12.75040048 47.13671875 14.515625 Z " fill="#DBB02A" transform="translate(432,242)"/>
<path d="M0 0 C5.96816406 -0.49734701 9.98557823 0.69093338 15 4 C17.54790426 6.62752627 18 7.30715574 18 11 C23.94 11 29.88 11 36 11 C36 11.33 36 11.66 36 12 C32.04 12 28.08 12 24 12 C24.84884766 13.53720703 24.84884766 13.53720703 25.71484375 15.10546875 C26.45607541 16.46595725 27.19694164 17.82664489 27.9375 19.1875 C28.49727539 20.19780273 28.49727539 20.19780273 29.06835938 21.22851562 C31.00554868 24.80620758 32.49827956 27.8986345 33 32 C33.66 32 34.32 32 35 32 C35.350625 30.7625 35.70125 29.525 36.0625 28.25 C38.11360285 22.06710823 41.26002149 16.32608987 45 11 C45.66 11 46.32 11 47 11 C47.6953125 12.61328125 47.6953125 12.61328125 48 15 C46.7421875 17.85546875 46.7421875 17.85546875 44.875 21.1875 C36.72055931 36.73740057 35.11786272 51.56787204 35 69 C33.35 69 31.7 69 30 69 C29.9906543 68.24493164 29.98130859 67.48986328 29.97167969 66.71191406 C29.91733084 63.22399658 29.83381251 59.73732912 29.75 56.25 C29.73582031 55.06277344 29.72164063 53.87554687 29.70703125 52.65234375 C29.39982236 41.40849844 26.40421144 32.16194508 21.25 22.25 C20.93417969 21.63640625 20.61835938 21.0228125 20.29296875 20.390625 C19.53628582 18.92311872 18.76935196 17.46090427 18 16 C13.91017917 15.70778044 13.91017917 15.70778044 10.13671875 17.0234375 C7.18001625 19.70466633 7.18001625 19.70466633 5 23 C4.34 22.67 3.68 22.34 3 22 C5.98127544 16.87220625 9.03353764 14.24730231 14 11 C9.58595572 6.91084731 5.5658728 3.36549594 0 1 C0 0.67 0 0.34 0 0 Z " fill="#F4F089" transform="translate(432,242)"/>
<path d="M0 0 C-1.051875 0.8353125 -1.051875 0.8353125 -2.125 1.6875 C-4.15932264 3.32380299 -6.17628943 4.97133314 -8.1796875 6.64453125 C-9.57574219 7.81048828 -9.57574219 7.81048828 -11 9 C-9.74445313 9.14695313 -8.48890625 9.29390625 -7.1953125 9.4453125 C2.26802765 10.66815673 10.3940734 11.76408502 18 18 C18.82564453 18.67289062 18.82564453 18.67289062 19.66796875 19.359375 C21.53396108 21.05288064 22.88114848 22.77627949 24.0625 25 C23.96356259 28.16599711 22.06848928 29.74346624 20 32 C19.67128906 31.34773438 19.34257813 30.69546875 19.00390625 30.0234375 C14.83873327 22.37035544 10.26168699 18.16657699 2.2109375 14.8515625 C-1.53764026 13.85741414 -5.03266063 13.77819688 -8.875 13.875 C-9.90753906 13.88853516 -9.90753906 13.88853516 -10.9609375 13.90234375 C-12.64077838 13.92567487 -14.32043746 13.96153674 -16 14 C-16.33 13.01 -16.66 12.02 -17 11 C-17.66 11 -18.32 11 -19 11 C-19.24492187 11.65355469 -19.48984375 12.30710938 -19.7421875 12.98046875 C-21.35582298 16.85419615 -23.23166783 20.56932209 -25.125 24.3125 C-25.49753906 25.05306641 -25.87007813 25.79363281 -26.25390625 26.55664062 C-27.16744806 28.37201217 -28.08347487 30.18613282 -29 32 C-29.66 32 -30.32 32 -31 32 C-32.31746333 29.41909233 -33.62909617 26.83549542 -34.9375 24.25 C-35.31068359 23.52039063 -35.68386719 22.79078125 -36.06835938 22.0390625 C-36.42607422 21.33007812 -36.78378906 20.62109375 -37.15234375 19.890625 C-37.6472229 18.91657715 -37.6472229 18.91657715 -38.15209961 17.92285156 C-39.01452116 15.96706921 -39.54374179 14.08459306 -40 12 C-42.97 11.505 -42.97 11.505 -46 11 C-46.33 9.35 -46.66 7.7 -47 6 C-46.45956055 6.48388184 -45.91912109 6.96776367 -45.36230469 7.46630859 C-40.87857169 10.37730598 -35.44735901 9.59638018 -30.25 9.625 C-29.095 9.67011719 -27.94 9.71523437 -26.75 9.76171875 C-20.81574865 9.80913857 -16.95844839 9.63689993 -12.421875 5.5859375 C-11.8453418 4.96509277 -11.26880859 4.34424805 -10.67480469 3.70458984 C-7.39796725 0.36947629 -4.58958916 -0.25497718 0 0 Z " fill="#DBD97C" transform="translate(496,242)"/>
<path d="M0 0 C5.96816406 -0.49734701 9.98557823 0.69093338 15 4 C17.54790426 6.62752627 18 7.30715574 18 11 C23.94 11 29.88 11 36 11 C36 11.33 36 11.66 36 12 C32.04 12 28.08 12 24 12 C24.45632813 12.73605469 24.91265625 13.47210938 25.3828125 14.23046875 C25.95773437 15.20628906 26.53265625 16.18210937 27.125 17.1875 C27.99511719 18.63189453 27.99511719 18.63189453 28.8828125 20.10546875 C30 23 30 23 29.1796875 25.86328125 C28.79039062 26.56839844 28.40109375 27.27351563 28 28 C27.34 28 26.68 28 26 28 C25.67 28.66 25.34 29.32 25 30 C22.69 25.38 20.38 20.76 18 16 C10.93264986 16 10.64960163 16.45852864 6 21 C5.67 21.66 5.34 22.32 5 23 C4.34 22.67 3.68 22.34 3 22 C5.98127544 16.87220625 9.03353764 14.24730231 14 11 C9.58595572 6.91084731 5.5658728 3.36549594 0 1 C0 0.67 0 0.34 0 0 Z " fill="#F1ED88" transform="translate(432,242)"/>
<path d="M0 0 C0.33 0 0.66 0 1 0 C1 8.91 1 17.82 1 27 C2.65 27 4.3 27 6 27 C6 19.41 6 11.82 6 4 C6.33 4 6.66 4 7 4 C7 11.92 7 19.84 7 28 C10.94876036 27.97168425 14.89316546 27.92802517 18.84082031 27.84741211 C20.83116399 27.81325235 22.82188304 27.80380856 24.8125 27.79492188 C32.21318144 27.62672457 37.65848032 26.92304397 44.05126953 23.06518555 C46.45715109 21.75011899 48.3140358 22 51 22 C51 22.99 51 23.98 51 25 C49.81679424 25.63309191 48.62812152 26.25596718 47.4375 26.875 C46.77621094 27.22304688 46.11492187 27.57109375 45.43359375 27.9296875 C38.81364351 30.84119049 33.05919563 31.27690573 25.91015625 31.1953125 C24.4933683 31.19106766 24.4933683 31.19106766 23.04795837 31.18673706 C20.05267276 31.17560684 17.05769414 31.1505156 14.0625 31.125 C12.0227908 31.11496095 9.98307688 31.10583672 7.94335938 31.09765625 C2.9621226 31.07569096 -2.01888678 31.04121076 -7 31 C-6.38125 30.71125 -5.7625 30.4225 -5.125 30.125 C-2.86674235 29.06279958 -2.86674235 29.06279958 -1 27 C-0.62760773 24.18597317 -0.62760773 24.18597317 -0.5859375 20.8984375 C-0.52792969 19.08085937 -0.52792969 19.08085937 -0.46875 17.2265625 C-0.42234375 15.32003906 -0.42234375 15.32003906 -0.375 13.375 C-0.31699219 11.456875 -0.31699219 11.456875 -0.2578125 9.5 C-0.16328951 6.33347983 -0.07773643 3.1669696 0 0 Z " fill="#C7C470" transform="translate(461,284)"/>
<path d="M0 0 C6.6 0 13.2 0 20 0 C17.03 6.27 14.06 12.54 11 19 C10.34 19 9.68 19 9 19 C7.68504458 16.39704724 6.37295014 13.79271967 5.0625 11.1875 C4.68931641 10.44951172 4.31613281 9.71152344 3.93164062 8.95117188 C3.57392578 8.23896484 3.21621094 7.52675781 2.84765625 6.79296875 C2.51773682 6.1383667 2.18781738 5.48376465 1.84790039 4.80932617 C1 3 1 3 0 0 Z " fill="#0E0F0D" transform="translate(456,255)"/>
<path d="M0 0 C6.80175145 1.70043786 12.27985755 5.90280475 17 11 C17.9375 12.875 17.9375 12.875 18 15 C16.0625 17.75 16.0625 17.75 14 20 C13.67128906 19.34773438 13.34257813 18.69546875 13.00390625 18.0234375 C9.37339019 11.35273319 5.65353704 7.63726692 -1 4 C-0.34 3.67 0.32 3.34 1 3 C0.67 2.01 0.34 1.02 0 0 Z " fill="#E7CA4F" transform="translate(502,254)"/>
<path d="M0 0 C0.66 0 1.32 0 2 0 C2.70703125 1.57421875 2.70703125 1.57421875 3 4 C1.98481312 6.3881617 0.9363585 8.55392613 -0.3125 10.8125 C-2.85668494 15.48788596 -4.69463966 19.82494199 -6 25 C-7.32 23.68 -8.64 22.36 -10 21 C-7.83495756 13.35867373 -4.57911978 6.52110793 0 0 Z " fill="#E3E17E" transform="translate(477,253)"/>
<path d="M0 0 C2.0625 0.4375 2.0625 0.4375 4 1 C4 1.99 4 2.98 4 4 C-2.39400348 7.42120706 -8.55265421 10.45135429 -16 10 C-16 9.67 -16 9.34 -16 9 C-23.92 8.67 -31.84 8.34 -40 8 C-40 7.67 -40 7.34 -40 7 C-38.76080811 6.99383667 -38.76080811 6.99383667 -37.49658203 6.98754883 C-34.3835014 6.96031754 -31.27171457 6.91097161 -28.15917969 6.84741211 C-26.16883601 6.81325235 -24.17811696 6.80380856 -22.1875 6.79492188 C-14.23235669 6.61412316 -5.97485293 5.97485293 0 0 Z " fill="#9E9752" transform="translate(508,305)"/>
<path d="M0 0 C0.53915039 0.4844458 1.07830078 0.9688916 1.63378906 1.46801758 C4.55768283 3.36106683 6.39550128 3.42335462 9.859375 3.51171875 C11.53193359 3.56489258 11.53193359 3.56489258 13.23828125 3.61914062 C14.39714844 3.64169922 15.55601562 3.66425781 16.75 3.6875 C18.51150391 3.73874023 18.51150391 3.73874023 20.30859375 3.79101562 C23.20563389 3.87345173 26.10237298 3.94261811 29 4 C28.67 4.99 28.34 5.98 28 7 C21.07 7 14.14 7 7 7 C7 6.67 7 6.34 7 6 C4.03 5.505 4.03 5.505 1 5 C0.67 3.35 0.34 1.7 0 0 Z " fill="#D6C356" transform="translate(449,248)"/>
<path d="M0 0 C0.33333333 1.33333333 0.66666667 2.66666667 1 4 C1.2475 4.61875 1.495 5.2375 1.75 5.875 C2.16006868 9.36058382 0.94124156 11.14880146 -1 14 C-3.29990661 15.37178465 -5.4395361 16.13040849 -8 17 C-7.38214157 12.9839202 -5.22212512 10.33318768 -3 7 C-1.89690257 4.69647302 -0.94944477 2.37361193 0 0 Z " fill="#D5B63E" transform="translate(517,290)"/>
<path d="M0 0 C6.07328688 -0.50610724 9.77228537 0.95842058 15 4 C14.34 5.65 13.68 7.3 13 9 C11.2063257 7.8782037 9.4151227 6.75245517 7.625 5.625 C6.12839844 4.68527344 6.12839844 4.68527344 4.6015625 3.7265625 C2 2 2 2 0 0 Z " fill="#AEAB64" transform="translate(432,242)"/>
<path d="M0 0 C0.33 0.66 0.66 1.32 1 2 C11.23 2.33 21.46 2.66 32 3 C32 3.33 32 3.66 32 4 C19.46 4 6.92 4 -6 4 C-4.68 3.34 -3.36 2.68 -2 2 C-1.34 1.34 -0.68 0.68 0 0 Z " fill="#B5B467" transform="translate(460,311)"/>
<path d="M0 0 C2.56278699 -0.05420701 5.12441483 -0.09377007 7.6875 -0.125 C8.40873047 -0.14175781 9.12996094 -0.15851563 9.87304688 -0.17578125 C14.04876781 -0.21391569 17.2494138 0.1210081 21 2 C21 2.66 21 3.32 21 4 C13.97234063 3.17321655 6.99001647 2.09751783 0 1 C0 0.67 0 0.34 0 0 Z " fill="#ECE985" transform="translate(482,253)"/>
<path d="M0 0 C0.66 0 1.32 0 2 0 C0.67519115 5.43171629 -1.93431827 9.24467565 -6 13 C-6.99 13.33 -7.98 13.66 -9 14 C-8.67 12.68 -8.34 11.36 -8 10 C-7.01 10 -6.02 10 -5 10 C-4.9175 9.46375 -4.835 8.9275 -4.75 8.375 C-3.72418729 5.12659309 -2.03436106 2.71248141 0 0 Z " fill="#C3A32F" transform="translate(521,294)"/>
<path d="M0 0 C2.22625688 1.43629476 3.74165606 2.51560512 5 4.875 C5 8.14998024 3.13820538 9.66741232 1 12 C-1.22923777 7.67265609 -0.92470553 4.71599818 0 0 Z " fill="#E6C139" transform="translate(515,262)"/>
<path d="M0 0 C5.66153846 1.47692308 5.66153846 1.47692308 7.375 4.125 C7.58125 4.74375 7.7875 5.3625 8 6 C6.3125 6.75 6.3125 6.75 4 7 C1.25 5.0625 1.25 5.0625 -1 3 C-0.34 3 0.32 3 1 3 C0.67 2.01 0.34 1.02 0 0 Z " fill="#DACD66" transform="translate(502,254)"/>
<path d="M0 0 C0 0.33 0 0.66 0 1 C-0.886875 1.2475 -1.77375 1.495 -2.6875 1.75 C-6.6798152 3.25653404 -10.04062332 5.08124663 -12 9 C-12.66 8.67 -13.32 8.34 -14 8 C-7.80769231 -1.95192308 -7.80769231 -1.95192308 0 0 Z " fill="#CDCB77" transform="translate(449,256)"/>
<path d="M0 0 C0.99 0.33 1.98 0.66 3 1 C4.1875 4.0625 4.1875 4.0625 5 7 C3.02 7.33 1.04 7.66 -1 8 C-1 5.16032769 -0.59732819 2.76264289 0 0 Z " fill="#EBDE6F" transform="translate(446,247)"/>
<path d="M0 0 C1.98 0.495 1.98 0.495 4 1 C3.67 3.64 3.34 6.28 3 9 C0.9375 7.3125 0.9375 7.3125 -1 5 C-0.75 2.25 -0.75 2.25 0 0 Z " fill="#DBD77B" transform="translate(468,269)"/>
<path d="M0 0 C1.93166016 0.01740234 1.93166016 0.01740234 3.90234375 0.03515625 C5.19269531 0.04417969 6.48304688 0.05320313 7.8125 0.0625 C8.81152344 0.07410156 9.81054688 0.08570313 10.83984375 0.09765625 C10.83984375 0.42765625 10.83984375 0.75765625 10.83984375 1.09765625 C9.62748047 1.13632812 9.62748047 1.13632812 8.390625 1.17578125 C0.25769397 1.45287865 0.25769397 1.45287865 -6.16015625 6.09765625 C-3.86079135 0.11930752 -3.86079135 0.11930752 0 0 Z " fill="#252419" transform="translate(484.16015625,254.90234375)"/>
<path d="M0 0 C0.66 0 1.32 0 2 0 C2.93065133 2.60582371 3.14917407 3.64198224 2.0625 6.25 C1.5365625 7.11625 1.5365625 7.11625 1 8 C0.34 8 -0.32 8 -1 8 C-1.625 5.6875 -1.625 5.6875 -2 3 C-1.34 2.01 -0.68 1.02 0 0 Z " fill="#EFEA85" transform="translate(477,253)"/>
<path d="M0 0 C0.33 0.66 0.66 1.32 1 2 C3.52733235 2.65555119 3.52733235 2.65555119 6 3 C6 3.33 6 3.66 6 4 C2.04 4 -1.92 4 -6 4 C-4.68 3.34 -3.36 2.68 -2 2 C-1.34 1.34 -0.68 0.68 0 0 Z " fill="#ACAA63" transform="translate(460,311)"/>
<path d="M0 0 C0.7734375 0.7115625 0.7734375 0.7115625 1.5625 1.4375 C4.66782675 3.42809407 7.36632504 3.65060818 11 4 C11 4.33 11 4.66 11 5 C7.7 5 4.4 5 1 5 C0.67 3.35 0.34 1.7 0 0 Z " fill="#C5AF48" transform="translate(449,248)"/>
<path d="M0 0 C-1.65 1.32 -3.3 2.64 -5 4 C-6.32 3.34 -7.64 2.68 -9 2 C-5.86501708 0.14223235 -3.62528568 -0.20140476 0 0 Z " fill="#B2B167" transform="translate(496,242)"/>
</svg>
